<svg xmlns="http://www.w3.org/2000/svg" xmlns:xlink="http://www.w3.org/1999/xlink" width="500" zoomAndPan="magnify" viewBox="0 0 375 374.999991" height="500" preserveAspectRatio="xMidYMid meet" version="1.0"><path fill="#ff6100" d="M 66.035156 19.0625 L 245.707031 19.0625 C 264.882812 19.0625 280.425781 34.609375 280.425781 53.785156 L 280.425781 142.320312 C 280.425781 161.492188 264.882812 177.039062 245.707031 177.039062 L 96.578125 177.039062 L 30.449219 285.25 L 31.316406 130.539062 L 31.316406 53.785156 C 31.316406 34.609375 46.859375 19.0625 66.035156 19.0625 Z M 66.035156 19.0625 " fill-opacity="1" fill-rule="nonzero"/><path fill="#233dff" d="M 308.957031 355.929688 L 129.285156 355.929688 C 110.113281 355.929688 94.566406 340.386719 94.566406 321.210938 L 94.566406 232.675781 C 94.566406 213.5 110.113281 197.957031 129.285156 197.957031 L 278.417969 197.957031 L 344.546875 89.746094 L 343.679688 244.457031 L 343.679688 321.210938 C 343.679688 340.386719 328.132812 355.929688 308.957031 355.929688 Z M 308.957031 355.929688 " fill-opacity="1" fill-rule="nonzero"/></svg>